<svg width="30" height="30" viewBox="0 0 30 30" fill="none" xmlns="http://www.w3.org/2000/svg">
<path fill-rule="evenodd" clip-rule="evenodd" d="M19.2 6.20001H5.20001C4.60001 6.20001 4.20001 6.60001 4.20001 7.20001V17.2C4.20001 17.8 4.60001 18.2 5.20001 18.2H19.2C19.8 18.2 20.2 17.8 20.2 17.2V7.20001C20.2 6.70001 19.8 6.20001 19.2 6.20001ZM5.20001 4.20001C3.50001 4.20001 2.20001 5.50001 2.20001 7.20001V17.2C2.20001 18.9 3.50001 20.2 5.20001 20.2H19.2C20.9 20.2 22.2 18.9 22.2 17.2V7.20001C22.2 5.50001 20.9 4.20001 19.2 4.20001H5.20001Z" fill="white"/>
<path d="M7.09999 15.8H5.79999L8.19999 8.80002H9.69999L12.1 15.8H10.8L8.99999 10.2H8.89999L7.09999 15.8ZM7.09999 13H10.7V14H7.09999V13Z" fill="white"/>
<path d="M15.4 15.8H13.1V8.80002H15.5C16.2 8.80002 16.8 8.90002 17.3 9.20002C17.8 9.50002 18.2 9.90002 18.4 10.4C18.7 10.9 18.8 11.5 18.8 12.3C18.8 13 18.7 13.7 18.4 14.2C18.1 14.7 17.8 15.1 17.3 15.4C16.7 15.6 16.1 15.8 15.4 15.8ZM14.3 14.7H15.3C15.8 14.7 16.2 14.6 16.5 14.4C16.8 14.2 17.1 14 17.2 13.6C17.4 13.2 17.4 12.8 17.4 12.3C17.4 11.8 17.3 11.3 17.2 11C17 10.6 16.8 10.4 16.5 10.2C16.2 10 15.8 9.90002 15.3 9.90002H14.2V14.7H14.3Z" fill="white"/>
</svg>
