<svg width="30" height="30" viewBox="0 0 30 30" fill="none" xmlns="http://www.w3.org/2000/svg">
<path fill-rule="evenodd" clip-rule="evenodd" d="M19 6H5C4.4 6 4 6.4 4 7V17C4 17.6 4.4 18 5 18H19C19.6 18 20 17.6 20 17V7C20 6.4 19.6 6 19 6ZM5 4C3.3 4 2 5.3 2 7V17C2 18.7 3.3 20 5 20H19C20.7 20 22 18.7 22 17V7C22 5.3 20.7 4 19 4H5Z" fill="white"/>
<path d="M11.5 10.9H10.3C10.3 10.7 10.2 10.5 10.1 10.4C9.99998 10.2 9.89998 10.1 9.69998 10C9.59998 9.8 9.39998 9.7 9.19998 9.7C9.09998 9.6 8.89998 9.6 8.69998 9.6C8.29998 9.6 7.99998 9.7 7.69998 9.9C7.39998 10.1 7.19998 10.4 6.99998 10.7C6.79998 11.1 6.79998 11.5 6.79998 12C6.79998 12.5 6.89998 13 6.99998 13.3C7.19998 13.7 7.39998 13.9 7.69998 14.1C7.99998 14.3 8.29998 14.4 8.69998 14.4C8.89998 14.4 9.09998 14.4 9.29998 14.3C9.49998 14.2 9.59998 14.2 9.79998 14.1C9.89998 14 10.1 13.9 10.2 13.7C10.3 13.5 10.4 13.4 10.4 13.2H11.6C11.6 13.5 11.5 13.8 11.3 14.1C11.1 14.4 10.9 14.6 10.7 14.9C10.5 15.1 10.2 15.3 9.79998 15.4C9.49998 15.5 9.09998 15.6 8.69998 15.6C8.09998 15.6 7.59998 15.5 7.09998 15.2C6.59998 14.9 6.29998 14.5 5.99998 14C5.69998 13.5 5.59998 12.8 5.59998 12.1C5.59998 11.4 5.69998 10.7 5.99998 10.2C6.19998 9.6 6.59998 9.2 6.99998 8.9C7.49998 8.6 7.99998 8.5 8.59998 8.5C8.99998 8.5 9.29998 8.6 9.69998 8.7C9.99998 8.8 10.3 9 10.6 9.2C10.9 9.4 11.1 9.7 11.2 10C11.4 10.2 11.5 10.5 11.5 10.9Z" fill="white"/>
<path d="M18.5 10.9H17.3C17.3 10.7 17.2 10.5 17.1 10.4C17 10.2 16.9 10.1 16.7 10C16.6 9.90001 16.4 9.80001 16.2 9.80001C16 9.70001 15.8 9.70001 15.6 9.70001C15.2 9.70001 14.9 9.80001 14.6 10C14.3 10.2 14.1 10.5 13.9 10.8C13.7 11.2 13.7 11.6 13.7 12.1C13.7 12.6 13.8 13.1 13.9 13.4C14.1 13.8 14.3 14 14.6 14.2C14.9 14.4 15.2 14.5 15.6 14.5C15.8 14.5 16 14.5 16.2 14.4C16.4 14.3 16.5 14.3 16.7 14.2C16.8 14.1 17 14 17.1 13.8C17.2 13.6 17.3 13.5 17.3 13.3H18.5C18.5 13.6 18.4 13.9 18.2 14.2C18 14.5 17.8 14.7 17.6 15C17.4 15.2 17.1 15.4 16.7 15.5C16.4 15.6 16 15.7 15.6 15.7C15 15.7 14.5 15.6 14 15.3C13.5 15 13.2 14.6 12.9 14.1C12.6 13.6 12.5 12.9 12.5 12.2C12.5 11.5 12.6 10.8 12.9 10.3C13.2 9.80001 13.5 9.40001 14 9.10001C14.5 8.80001 15 8.70001 15.6 8.70001C16 8.70001 16.3 8.80001 16.7 8.90001C17 9.00001 17.3 9.20001 17.6 9.40001C17.9 9.60001 18.1 9.90001 18.2 10.2C18.3 10.2 18.4 10.5 18.5 10.9Z" fill="white"/>
</svg>
