<svg width="30" height="30" viewBox="0 0 30 30" fill="none" xmlns="http://www.w3.org/2000/svg">
<path d="M12 8.99999C12.9941 8.99999 13.8 8.1941 13.8 7.19999C13.8 6.20588 12.9941 5.39999 12 5.39999C11.0059 5.39999 10.2 6.20588 10.2 7.19999C10.2 8.1941 11.0059 8.99999 12 8.99999Z" fill="white"/>
<path d="M10.8017 11.936C9.61373 11.8083 8.48084 11.4931 7.43403 11.0202C6.98106 10.8155 6.77977 10.2824 6.98444 9.82942C7.1891 9.37645 7.72221 9.17516 8.17518 9.37982C9.34067 9.90642 10.6348 10.2 12 10.2C13.3651 10.2 14.6593 9.90642 15.8248 9.37982C16.2778 9.17516 16.8109 9.37645 17.0155 9.82942C17.2202 10.2824 17.0189 10.8155 16.5659 11.0202C15.5191 11.4931 14.3862 11.8083 13.1983 11.936C13.1994 11.9572 13.2 11.9785 13.2 12C13.2 12.6909 13.3188 13.3767 13.5512 14.0274L14.6476 17.0973C14.8147 17.5654 14.5708 18.0804 14.1027 18.2476C13.6346 18.4147 13.1196 18.1708 12.9524 17.7027L12.0942 15.2996C12.0626 15.2111 11.9374 15.2111 11.9058 15.2996L11.0476 17.7027C10.8804 18.1708 10.3654 18.4147 9.89729 18.2476C9.42919 18.0804 9.18525 17.5654 9.35243 17.0973L10.4488 14.0274C10.6802 13.3796 10.7989 12.6969 10.8 12.0091V12C10.8 11.9785 10.8006 11.9572 10.8017 11.936Z" fill="white"/>
<path fill-rule="evenodd" clip-rule="evenodd" d="M22.2 12C22.2 17.6333 17.6333 22.2 12 22.2C6.36668 22.2 1.79999 17.6333 1.79999 12C1.79999 6.36668 6.36668 1.79999 12 1.79999C17.6333 1.79999 22.2 6.36668 22.2 12ZM20.4 12C20.4 16.6392 16.6392 20.4 12 20.4C7.3608 20.4 3.59999 16.6392 3.59999 12C3.59999 7.3608 7.3608 3.59999 12 3.59999C16.6392 3.59999 20.4 7.3608 20.4 12Z" fill="white"/>
</svg>
