<svg style="fill:#ffffff84" xmlns="http://www.w3.org/2000/svg" viewBox="0 0 30 30"><path fill-rule="evenodd" clip-rule="evenodd" d="M12 5.001c-.642 0-1.292.029-1.929.076-2.75.205-3.265.318-3.97 1.025-.707.706-.82 1.22-1.025 3.97A26.112 26.112 0 005 12.003c0 .642.028 1.291.076 1.928.204 2.75.318 3.265 1.024 3.971.706.707 1.22.82 3.971 1.025.637.047 1.287.076 1.929.076.642 0 1.292-.029 1.929-.076 2.75-.205 3.265-.318 3.97-1.025.089-.087.167-.172.238-.259.283-.345.663-.642 1.109-.642.684 0 1.205.65.88 1.25-.202.371-.465.718-.812 1.066-1.313 1.312-2.62 1.41-5.237 1.604-.678.05-1.377.081-2.077.081s-1.399-.03-2.077-.08c-2.616-.195-3.924-.293-5.237-1.605-1.313-1.313-1.41-2.621-1.605-5.237A28.103 28.103 0 013 12c0-.7.03-1.399.081-2.077.195-2.616.292-3.924 1.605-5.237 1.313-1.312 2.62-1.41 5.237-1.604C10.6 3.032 11.3 3 12 3s1.399.031 2.077.082c2.616.194 3.924.292 5.237 1.604.346.347.608.692.81 1.062.326.6-.196 1.251-.88 1.251-.446 0-.826-.296-1.109-.641a3.495 3.495 0 00-.235-.257c-.706-.707-1.22-.82-3.971-1.025A26.108 26.108 0 0012 5.001zM19 9a1 1 0 011 1v1h1a1 1 0 110 2h-1v1a1 1 0 11-2 0v-1h-1a1 1 0 110-2h1v-1a1 1 0 011-1zm-5.428 5.461c.432-.528.648-1.34.648-2.439 0-2.148-.87-3.222-2.61-3.222-.888 0-1.545.267-1.971.801-.426.534-.639 1.341-.639 2.421 0 1.098.213 1.911.639 2.44.426.521 1.083.782 1.971.782.882 0 1.536-.26 1.962-.783zm-.954-3.546c.036.192.054.411.054.657v.891c0 .528-.075.924-.225 1.188-.144.264-.423.396-.837.396-.21 0-.384-.033-.522-.099a.905.905 0 01-.324-.297 1.497 1.497 0 01-.171-.495 4.683 4.683 0 01-.045-.693v-.89c0-.253.015-.478.045-.676.036-.198.093-.363.17-.495a.81.81 0 01.325-.297c.138-.072.312-.108.522-.108a1.1 1.1 0 01.513.108.78.78 0 01.324.315c.084.132.14.297.17.495z"></path></svg>