<svg width="20" height="20" viewBox="0 0 24 24" fill="none" xmlns="http://www.w3.org/2000/svg">
<g clip-path="url(#clip0_35_1158)">
<path fill-rule="evenodd" clip-rule="evenodd" d="M11.6847 21.2445C14.8753 21.2445 17.5342 18.5856 17.5342 15.3949C17.5342 12.2043 14.8753 9.54541 11.6847 9.54541C8.494 9.54541 5.83511 12.2043 5.83511 15.3949C5.83511 18.5856 8.38764 21.2445 11.6847 21.2445ZM11.6847 23.3716C16.0452 23.3716 19.6613 19.7555 19.6613 15.3949C19.6613 11.0344 16.0452 7.4183 11.6847 7.4183C7.21773 7.4183 3.70801 11.0344 3.70801 15.3949C3.70801 19.7555 7.21773 23.3716 11.6847 23.3716Z" fill="white"/>
<path d="M10.0893 13.7996C10.0893 14.4377 9.6639 14.8632 9.02577 14.8632C8.38764 14.8632 7.96222 14.4377 7.96222 13.7996C7.96222 13.1615 8.38764 12.7361 9.02577 12.7361C9.55755 12.7361 10.0893 13.1615 10.0893 13.7996Z" fill="white"/>
<path d="M15.4071 13.7996C15.4071 14.4377 14.9817 14.8632 14.3435 14.8632C13.7054 14.8632 13.28 14.4377 13.28 13.7996C13.28 13.1615 13.7054 12.7361 14.3435 12.7361C14.9817 12.7361 15.4071 13.1615 15.4071 13.7996Z" fill="white"/>
<path d="M11.3178 0.0950271C11.4104 -0.0316756 11.5996 -0.0316757 11.6922 0.0950269L12.4751 1.1658C12.5038 1.20495 12.5439 1.23414 12.59 1.24926L13.8503 1.66298C13.9994 1.71194 14.0579 1.8918 13.966 2.01906L13.1896 3.09456C13.1612 3.13388 13.1458 3.18111 13.1457 3.2296L13.1417 4.55607C13.1412 4.71303 12.9882 4.82419 12.8388 4.77614L11.576 4.37006C11.5298 4.35521 11.4802 4.35521 11.434 4.37006L10.1712 4.77614C10.0218 4.82419 9.86879 4.71303 9.86832 4.55607L9.8643 3.2296C9.86415 3.18111 9.84881 3.13388 9.82042 3.09456L9.04399 2.01906C8.95212 1.8918 9.01056 1.71194 9.15969 1.66298L10.42 1.24926C10.4661 1.23414 10.5062 1.20495 10.5349 1.1658L11.3178 0.0950271Z" fill="white"/>
<path d="M4.91686 2.09503C5.0095 1.96832 5.19862 1.96832 5.29126 2.09503L6.07419 3.1658C6.10281 3.20495 6.14299 3.23414 6.18906 3.24926L7.44937 3.66298C7.5985 3.71194 7.65694 3.8918 7.56507 4.01906L6.78864 5.09456C6.76025 5.13388 6.74491 5.18111 6.74476 5.2296L6.74074 6.55607C6.74027 6.71303 6.58727 6.82419 6.43784 6.77614L5.17505 6.37006C5.12889 6.35521 5.07923 6.35521 5.03307 6.37006L3.77028 6.77614C3.62085 6.82419 3.46785 6.71303 3.46738 6.55607L3.46336 5.2296C3.46321 5.18111 3.44787 5.13388 3.41948 5.09456L2.64305 4.01906C2.55118 3.8918 2.60962 3.71194 2.75875 3.66298L4.01906 3.24926C4.06513 3.23414 4.10531 3.20495 4.13393 3.1658L4.91686 2.09503Z" fill="white"/>
<path d="M17.9169 2.09503C18.0095 1.96832 18.1986 1.96832 18.2913 2.09503L19.0742 3.1658C19.1028 3.20495 19.143 3.23414 19.1891 3.24926L20.4494 3.66298C20.5985 3.71194 20.6569 3.8918 20.5651 4.01906L19.7886 5.09456C19.7603 5.13388 19.7449 5.18111 19.7448 5.2296L19.7407 6.55607C19.7403 6.71303 19.5873 6.82419 19.4378 6.77614L18.1751 6.37006C18.1289 6.35521 18.0792 6.35521 18.0331 6.37006L16.7703 6.77614C16.6209 6.82419 16.4679 6.71303 16.4674 6.55607L16.4634 5.2296C16.4632 5.18111 16.4479 5.13388 16.4195 5.09456L15.6431 4.01906C15.5512 3.8918 15.6096 3.71194 15.7588 3.66298L17.0191 3.24926C17.0651 3.23414 17.1053 3.20495 17.1339 3.1658L17.9169 2.09503Z" fill="white"/>
</g>
<defs>
<clipPath id="clip0_35_1158">
<rect width="24" height="24" fill="white"/>
</clipPath>
</defs>
</svg>
