<svg xmlns="http://www.w3.org/2000/svg" style="fill:#fff" viewBox="0 0 30 30"><path d="M11.86 2.502a2.14 2.14 0 0 0-1.435.553L6.94 6.208a4 4 0 0 1-1.118.756l-.842.41A5.304 5.304 0 0 0 2 12.142v.238a5 5 0 0 0 3.787 4.85c.478.119.919.354 1.284.685l3.354 3.034A2.14 2.14 0 0 0 14 19.362V4.642a2.14 2.14 0 0 0-2.14-2.14zm-.094 2.036a.14.14 0 0 1 .234.104v14.72a.14.14 0 0 1-.234.104l-3.353-3.034a4.999 4.999 0 0 0-2.141-1.143A2.999 2.999 0 0 1 4 12.38v-.237c0-1.264.72-2.416 1.856-2.97l.842-.41.01-.005A6 6 0 0 0 8.273 7.7l.008-.008 3.485-3.153zm9.941 6.17a1 1 0 0 0-1.414-1.413L18.5 11.088l-1.793-1.793a1 1 0 1 0-1.414 1.414l1.793 1.793-1.793 1.793a1 1 0 0 0 1.414 1.414l1.793-1.793 1.793 1.793a1 1 0 0 0 1.414-1.414l-1.793-1.793 1.793-1.793z"/></svg>