<svg style="fill:#fff" xmlns="http://www.w3.org/2000/svg" viewBox="0 0 24 25"><g><path d="M12.002 4.002a.97.97 0 01.98-1c.553 0 1 .448 1.022 1 .062 1.499.25 2.961.444 4.136l4.845-4.845a1 1 0 111.414 1.415l-4.83 4.83A34.87 34.87 0 0020 9.98c.552.023 1 .47 1 1.022a.97.97 0 01-1 .98 37.03 37.03 0 01-4.668-.506c-1.097-.186-1.645-.28-2.095-.73-.45-.45-.544-.999-.73-2.095a36.695 36.695 0 01-.505-4.648zM12 20.002a.97.97 0 01-.98 1c-.553 0-1-.448-1.022-1a34.933 34.933 0 00-.443-4.142l-4.848 4.848a1 1 0 01-1.414-1.415l4.848-4.848A34.91 34.91 0 004 14.002c-.552-.023-1-.469-1-1.021a.97.97 0 011-.98c1.72.066 3.398.289 4.669.505 1.096.187 1.644.28 2.095.73.45.451.543 1 .73 2.096.217 1.27.44 2.95.506 4.67z"></path></g></svg>