<svg style="fill:#fff" xmlns="http://www.w3.org/2000/svg" viewBox="0 0 30 30"><g clip-path="url(#clip0_12213_7718)"><path d="M19.191 19.38c.546-.537.586-1.166.665-2.424.078-1.233.144-2.889.144-4.95a79.2 79.2 0 00-.144-4.953c-.08-1.258-.119-1.887-.665-2.424-.546-.536-1.104-.562-2.222-.613a10.25 10.25 0 00-.939 0c-1.117.05-1.676.077-2.222.613-.545.537-.585 1.166-.664 2.424A79.13 79.13 0 0013 12.005c0 2.062.066 3.718.144 4.952.079 1.258.119 1.886.664 2.423.546.537 1.105.562 2.222.614a10.163 10.163 0 00.94 0c1.117-.052 1.675-.077 2.221-.614zM10.191 19.38c.546-.536.586-1.165.665-2.424.078-1.233.144-2.889.144-4.95a79.2 79.2 0 00-.144-4.953c-.08-1.258-.119-1.887-.665-2.424-.546-.536-1.105-.562-2.222-.613a10.27 10.27 0 00-.938 0c-1.118.051-1.677.077-2.222.613-.546.537-.586 1.166-.665 2.424A79.136 79.136 0 004 12.006c0 2.062.066 3.717.144 4.95.079 1.259.119 1.888.664 2.424.546.537 1.105.562 2.222.614a10.309 10.309 0 00.94 0c1.117-.052 1.675-.077 2.221-.614z"></path></g><defs><clipPath id="clip0_12213_7718"><path transform="translate(0 .002)" d="M0 0h24v24H0z"></path></clipPath></defs></svg>