<svg width="20" height="20" viewBox="0 0 24 24" fill="none" xmlns="http://www.w3.org/2000/svg">
<path fill-rule="evenodd" clip-rule="evenodd" d="M17.4126 21.0531L17.2355 21.1463L16.0065 21.7412C14.9225 22.2271 13.9354 22.0229 13.0201 21.1782C13.0022 21.1617 12.9843 21.1449 12.9665 21.1279C12.9264 21.0897 12.8864 21.0502 12.8466 21.0095L12.6867 20.8387L12.551 20.6822C12.4982 20.6195 12.4385 20.5542 12.3735 20.488L12.2721 20.3881L12.2201 20.3402L12.1243 20.4311L12.0144 20.5437L11.8913 20.6822C10.895 21.8642 9.84341 22.2885 8.56883 21.7944L8.38521 21.7175L7.28538 21.1847L6.95867 21.0181C6.46069 20.7471 6.18123 20.4874 5.90815 19.9127C5.72006 19.5168 5.64676 19.1255 5.65758 18.6883L5.65793 18.6753C5.6644 18.4481 5.69342 18.2084 5.74071 17.9492L5.78717 17.7148L5.78779 17.7118C5.80417 17.6344 5.81851 17.5505 5.83053 17.462L5.84969 17.2832L5.8455 17.279L5.73705 17.2645L5.58381 17.2508L5.40191 17.2429C5.02048 17.236 4.67539 17.1973 4.36556 17.1252L4.35621 17.123C3.34659 16.8852 2.71304 16.2909 2.41793 15.2851L2.36667 15.0922L2.06166 13.7647C1.81576 12.5289 2.30826 11.5751 3.48768 10.8605L3.6906 10.7437L3.87415 10.6471C3.94609 10.6105 4.0219 10.5681 4.09988 10.5208L4.26178 10.4154L4.26597 10.3956L4.20053 10.2831L4.116 10.1526L4.00932 10.0034C3.95521 9.93173 3.90375 9.86056 3.85494 9.78987C3.79616 9.70475 3.74124 9.62032 3.69017 9.53653C3.01476 8.42836 3.01447 7.43308 3.72 6.45436L3.84097 6.29532L4.70267 5.2385C5.52837 4.28448 6.58566 4.08409 7.87669 4.57053L8.09403 4.65796L8.28335 4.74269C8.35458 4.77574 8.43252 4.80829 8.51546 4.83967L8.65729 4.8895L8.69494 4.87178L8.73012 4.77936L8.77728 4.63553L8.82543 4.46248C8.84245 4.39462 8.86026 4.32812 8.87887 4.26296L8.88644 4.23671C8.94273 4.04302 9.00626 3.86145 9.07758 3.69218L9.09578 3.64965C9.52573 2.65998 10.2303 2.10158 11.3248 2.01115L11.524 2L12.977 2.00091C14.2404 2.04011 15.0621 2.73298 15.4952 4.03914L15.5639 4.26251L15.6169 4.46248C15.6363 4.5395 15.6603 4.6215 15.6885 4.70666L15.7485 4.87282L15.784 4.89055L15.8562 4.86677L15.996 4.81341L16.159 4.74269C16.2269 4.71118 16.2941 4.68139 16.3606 4.65332L16.3891 4.64136C16.5519 4.5736 16.7105 4.51624 16.8651 4.46939L16.9139 4.45491C18.0346 4.12944 18.9398 4.36362 19.7021 5.1985L19.833 5.34951L20.6909 6.40934C21.4555 7.41271 21.4323 8.48516 20.6865 9.64271L20.5556 9.83643L20.433 10.0034C20.3841 10.0682 20.3343 10.14 20.2847 10.2172L20.2105 10.3368L20.1754 10.3966L20.1795 10.4175L20.2754 10.4806L20.4078 10.5602L20.5682 10.6471C22.0213 11.3862 22.621 12.3582 22.3897 13.7084L22.3509 13.9039L22.0956 15.0073C21.9302 15.7213 21.8003 16.0593 21.2893 16.5231C20.9185 16.8597 20.5086 17.0486 20.013 17.1484L20.0037 17.1503C19.8386 17.1831 19.6639 17.2061 19.478 17.2214L19.2479 17.2363L19.0405 17.2429C19.0201 17.2432 18.9994 17.2438 18.9784 17.2447L18.9733 17.2449C18.9125 17.2473 18.8488 17.2516 18.7829 17.2577L18.5937 17.2801L18.6075 17.4285L18.6214 17.5284L18.6552 17.7148C18.7375 18.1019 18.7772 18.4585 18.773 18.7863L18.7728 18.7963C18.7568 19.8102 18.3178 20.5468 17.4126 21.0531ZM13.6098 5.39562C13.6159 5.41409 13.6223 5.43249 13.6289 5.4508L13.6889 5.61695C13.8801 6.14681 14.2681 6.58259 14.7721 6.83378L14.8077 6.8515C15.324 7.10884 15.921 7.15193 16.4689 6.97142L16.5411 6.94765C16.5733 6.93704 16.6053 6.92568 16.6369 6.91359L16.7767 6.86022C16.8071 6.84862 16.8372 6.83635 16.867 6.82342L17.0301 6.7527C17.0469 6.74539 17.0637 6.73786 17.0804 6.73012C17.1261 6.70889 17.17 6.68946 17.2121 6.6717C17.3328 6.62073 17.4365 6.58436 17.5243 6.55885C17.6622 6.51882 17.7541 6.50749 17.8077 6.50522C17.8581 6.50308 17.8793 6.50871 17.8825 6.50953C17.8825 6.50953 17.8964 6.51316 17.9215 6.52922C17.948 6.54623 17.9988 6.58378 18.0703 6.6599L18.1546 6.75708L18.9642 7.75723C19.0266 7.84235 19.0499 7.89638 19.0579 7.91877C19.0654 7.93947 19.0654 7.94746 19.0654 7.95418C19.0653 7.96487 19.0625 8.11452 18.8573 8.43815L18.7654 8.57397L18.6755 8.69659C18.5931 8.80641 18.5155 8.91929 18.4431 9.03186L18.4239 9.06224L18.3497 9.18183C18.3403 9.19698 18.3311 9.21225 18.3221 9.22762L18.287 9.28748C18.0146 9.75162 17.9226 10.2998 18.0284 10.8275L18.0325 10.8484C18.1476 11.4225 18.4877 11.9266 18.9767 12.2482L19.0726 12.3112C19.0969 12.3272 19.1215 12.3427 19.1465 12.3578L19.2788 12.4374C19.3073 12.4546 19.3361 12.471 19.3653 12.4868L19.5258 12.5737C19.5423 12.5827 19.559 12.5915 19.5758 12.6C20.0861 12.8596 20.2151 13.046 20.2334 13.0765C20.2396 13.087 20.2417 13.0916 20.2443 13.1077C20.2475 13.1281 20.2543 13.1921 20.2349 13.3165L20.2097 13.4439L19.9623 14.5131C19.9251 14.6736 19.9003 14.7665 19.8812 14.8281L19.8755 14.8459C19.8627 14.8588 19.844 14.8769 19.818 14.9005C19.7836 14.9318 19.7624 14.9437 19.7457 14.9518C19.7258 14.9613 19.6777 14.9815 19.5772 15.0014C19.5121 15.0144 19.4269 15.0268 19.3151 15.0366L19.1424 15.0478L18.984 15.0528L18.8937 15.0555C18.7889 15.0596 18.6844 15.0667 18.5813 15.0762C18.5629 15.0779 18.5444 15.0799 18.526 15.082L18.3368 15.1044C17.1571 15.2439 16.3036 16.2989 16.4133 17.4823L16.4271 17.6308C16.4302 17.6646 16.4341 17.6983 16.4388 17.7319L16.4528 17.8317C16.4568 17.8609 16.4615 17.8901 16.4668 17.9191L16.5005 18.1054C16.5045 18.1272 16.5087 18.1489 16.5133 18.1705C16.5693 18.4336 16.5851 18.6251 16.5834 18.7577C16.582 18.8587 16.5706 18.9189 16.5629 18.9488C16.5559 18.9757 16.5495 18.9861 16.5495 18.9861C16.5495 18.9861 16.5421 18.9987 16.5182 19.0209C16.4937 19.0436 16.4463 19.0819 16.363 19.1301L16.2488 19.1902L15.0885 19.7517C14.9964 19.791 14.9382 19.8031 14.9102 19.807C14.8829 19.8108 14.8712 19.8088 14.8648 19.8076C14.8581 19.8063 14.7383 19.7834 14.5049 19.5679C14.4796 19.5446 14.4532 19.5192 14.4258 19.4916L14.3136 19.3718L14.2139 19.2567C14.1242 19.1511 14.0304 19.0493 13.9357 18.9528L13.9101 18.9272L13.8088 18.8273C13.7917 18.8105 13.7743 18.7939 13.7566 18.7776L13.7047 18.7297C12.8576 17.9481 11.55 17.9571 10.7137 18.7502L10.6178 18.8411C10.5971 18.8607 10.5768 18.8807 10.5569 18.9011L10.4471 19.0138C10.4235 19.0379 10.4005 19.0627 10.3781 19.0879L10.255 19.2264C10.2422 19.2407 10.2297 19.2552 10.2174 19.2698C9.86492 19.6879 9.65729 19.7828 9.60899 19.7997C9.59177 19.8058 9.58404 19.8066 9.56936 19.8061C9.55126 19.8054 9.49184 19.8004 9.38094 19.7595L9.28563 19.7196L8.2599 19.2227L7.98322 19.0816C7.9576 19.0674 7.93821 19.0559 7.92384 19.0471C7.91439 19.0299 7.9017 19.0055 7.88587 18.9722C7.85982 18.9173 7.84301 18.8712 7.84682 18.7377C7.84923 18.6533 7.86082 18.5326 7.89221 18.3574L7.93261 18.1536C7.9603 18.0211 7.9826 17.8878 8.00038 17.7569C8.00315 17.7365 8.00563 17.716 8.00783 17.6955L8.02699 17.5168C8.09775 16.8565 7.86536 16.1998 7.39513 15.7311L7.39094 15.7269C7.05136 15.3885 6.61018 15.1709 6.13507 15.1075L6.02662 15.093C5.99515 15.0888 5.9636 15.0853 5.93198 15.0825L5.77874 15.0687C5.74572 15.0658 5.71265 15.0636 5.67954 15.0621L5.49764 15.0542C5.47889 15.0534 5.46013 15.0528 5.44137 15.0524C5.18105 15.0478 4.99296 15.0219 4.86181 14.9914C4.75616 14.9668 4.69438 14.9408 4.66293 14.9249C4.63356 14.91 4.62335 14.8999 4.62335 14.8999C4.62335 14.8999 4.61267 14.89 4.59679 14.8627C4.58052 14.8348 4.55376 14.7808 4.52539 14.6891L4.49248 14.5652L4.20472 13.3129C4.18623 13.2099 4.1891 13.1518 4.19165 13.1284C4.19401 13.1069 4.19746 13.0995 4.20072 13.093C4.20615 13.0821 4.27586 12.9475 4.60416 12.7454L4.74674 12.6633L4.88174 12.5923C5.00288 12.5301 5.12125 12.4633 5.23491 12.3943C5.25486 12.3822 5.27461 12.3698 5.29416 12.3571L5.45605 12.2517C5.94291 11.9348 6.28396 11.4373 6.40416 10.8688L6.40835 10.849C6.52071 10.3175 6.4317 9.76319 6.15858 9.29367L6.09315 9.18119C6.07556 9.15094 6.05724 9.12112 6.03822 9.09176L5.95369 8.96125C5.93546 8.9331 5.91658 8.90537 5.89708 8.87809L5.7904 8.72887C5.77934 8.7134 5.76808 8.69808 5.75662 8.6829C5.41293 8.2277 5.38025 8.00584 5.37741 7.97262C5.37645 7.96142 5.37645 7.95651 5.38139 7.94044C5.38765 7.92009 5.41017 7.85847 5.48334 7.75379L5.56118 7.65145L6.37435 6.65415C6.44502 6.57548 6.49382 6.54094 6.51543 6.52759C6.53571 6.51507 6.54576 6.51239 6.5552 6.51045C6.57144 6.50712 6.72329 6.47998 7.08539 6.61347L7.23819 6.67493L7.3775 6.73728C7.4978 6.79261 7.61999 6.84309 7.74096 6.88886C7.75719 6.895 7.7735 6.90094 7.78987 6.9067L7.9317 6.95653C8.474 7.14707 9.06942 7.11665 9.5895 6.87186L9.62716 6.85413C10.1402 6.61265 10.5396 6.1815 10.7414 5.65139L10.7766 5.55896C10.7887 5.52699 10.8002 5.49473 10.8108 5.46222L10.858 5.31839C10.8683 5.28684 10.8779 5.25507 10.8868 5.22308L10.935 5.05003C10.94 5.03198 10.9448 5.01387 10.9494 4.9957C10.9608 4.94993 10.9725 4.90639 10.9843 4.865C11.0245 4.72457 11.0653 4.61206 11.1041 4.52293C11.1548 4.4062 11.1989 4.3362 11.2278 4.29737C11.2551 4.26068 11.2711 4.24869 11.2735 4.24692C11.2735 4.24692 11.2835 4.23935 11.308 4.23065C11.3338 4.22149 11.3883 4.20587 11.4828 4.19653L11.5845 4.19083L12.9345 4.19167C13.0412 4.197 13.0995 4.21321 13.1239 4.22171C13.1469 4.2297 13.155 4.23577 13.1617 4.24119C13.1724 4.24998 13.2874 4.34771 13.4102 4.70924L13.4583 4.86564L13.4972 5.01233C13.5303 5.14255 13.5686 5.27112 13.6098 5.39562Z" fill="white"/>
<path fill-rule="evenodd" clip-rule="evenodd" d="M12.2189 13.6788C13.0252 13.6788 13.6788 13.0252 13.6788 12.219C13.6788 11.4127 13.0252 10.7591 12.2189 10.7591C11.4127 10.7591 10.7591 11.4127 10.7591 12.219C10.7591 13.0252 11.4127 13.6788 12.2189 13.6788ZM12.2189 15.8686C14.2346 15.8686 15.8686 14.2346 15.8686 12.219C15.8686 10.2033 14.2346 8.56934 12.2189 8.56934C10.2033 8.56934 8.5693 10.2033 8.5693 12.219C8.5693 14.2346 10.2033 15.8686 12.2189 15.8686Z" fill="white"/>
</svg>
