<svg style="fill:#fff" xmlns="http://www.w3.org/2000/svg" viewBox="0 0 30 30"><path fill-rule="evenodd" clip-rule="evenodd" d="M11.86 2.502a2.14 2.14 0 00-1.435.553L6.94 6.208a4 4 0 01-1.118.756l-.842.41A5.304 5.304 0 002 12.142v.238a5 5 0 003.787 4.85c.478.119.919.354 1.284.685l3.354 3.034A2.14 2.14 0 0014 19.362V4.642a2.14 2.14 0 00-2.14-2.14zm-.094 2.036a.14.14 0 01.234.104v14.72a.14.14 0 01-.234.104l-3.353-3.034a4.999 4.999 0 00-2.141-1.143A2.999 2.999 0 014 12.38v-.237c0-1.264.72-2.416 1.856-2.97l.842-.41.01-.005a6 6 0 001.565-1.058l.008-.008 3.485-3.153zM18 12.495c0 .92-.385 1.483-1.143 2.373-.3.35-.644.641-1.034.634-.197-.003-.405-.083-.625-.27-.618-.525-.322-1.125.103-1.623.34-.4.506-.618.61-.795 0 0 .089-.132.089-.312s-.089-.312-.089-.312c-.104-.176-.27-.396-.61-.795-.425-.497-.721-1.097-.103-1.623.22-.187.428-.266.625-.27.39-.007.735.284 1.034.634.758.89 1.143 1.44 1.143 2.36z"></path></svg>